<?xml version="1.0" encoding="UTF-8" standalone="no"?>
<!-- Created with Inkscape (http://www.inkscape.org/) -->

<svg
   xmlns:dc="http://purl.org/dc/elements/1.1/"
   xmlns:cc="http://creativecommons.org/ns#"
   xmlns:rdf="http://www.w3.org/1999/02/22-rdf-syntax-ns#"
   xmlns:svg="http://www.w3.org/2000/svg"
   xmlns="http://www.w3.org/2000/svg"
   xmlns:sodipodi="http://sodipodi.sourceforge.net/DTD/sodipodi-0.dtd"
   xmlns:inkscape="http://www.inkscape.org/namespaces/inkscape"
   width="288.064mm"
   height="164.47243mm"
   viewBox="0 0 1020.6992 582.77631"
   id="svg2"
   version="1.1"
   inkscape:version="0.91 r13725"
   sodipodi:docname="blanketdb.svg">
  <defs
     id="defs4">
    <filter
       inkscape:collect="always"
       style="color-interpolation-filters:sRGB"
       id="filter4264"
       x="-0.01826526"
       width="1.0365305"
       y="-0.034983885"
       height="1.0699677">
      <feGaussianBlur
         inkscape:collect="always"
         stdDeviation="6.9739661"
         id="feGaussianBlur4266" />
    </filter>
    <filter
       inkscape:collect="always"
       style="color-interpolation-filters:sRGB"
       id="filter4196"
       x="-0.062319976"
       width="1.12464"
       y="-0.12881113"
       height="1.2576223">
      <feGaussianBlur
         inkscape:collect="always"
         stdDeviation="7.0826593"
         id="feGaussianBlur4198" />
    </filter>
  </defs>
  <sodipodi:namedview
     id="base"
     pagecolor="#ffffff"
     bordercolor="#666666"
     borderopacity="1.0"
     inkscape:pageopacity="0.0"
     inkscape:pageshadow="2"
     inkscape:zoom="0.49497475"
     inkscape:cx="83.857262"
     inkscape:cy="303.68962"
     inkscape:document-units="px"
     inkscape:current-layer="layer1"
     showgrid="false"
     fit-margin-top="10"
     fit-margin-left="10"
     fit-margin-right="10"
     fit-margin-bottom="10"
     inkscape:window-width="1920"
     inkscape:window-height="1027"
     inkscape:window-x="0"
     inkscape:window-y="0"
     inkscape:window-maximized="1" />
  <metadata
     id="metadata7">
    <rdf:RDF>
      <cc:Work
         rdf:about="">
        <dc:format>image/svg+xml</dc:format>
        <dc:type
           rdf:resource="http://purl.org/dc/dcmitype/StillImage" />
        <dc:title />
      </cc:Work>
    </rdf:RDF>
  </metadata>
  <g
     inkscape:label="Layer 1"
     inkscape:groupmode="layer"
     id="layer1"
     transform="translate(133.61057,-316.11281)">
    <g
       id="g4238"
       style="opacity:0.7;fill:#333333;filter:url(#filter4264)">
      <path
         style="fill:#333333;fill-opacity:1;fill-rule:evenodd;stroke:#000000;stroke-width:5;stroke-linecap:butt;stroke-linejoin:round;stroke-miterlimit:4;stroke-dasharray:none;stroke-opacity:1"
         d="m 205.48774,450.43849 c 0,0 71.71284,-66.88973 142.49999,-78.92857 43.87848,-7.46245 161.78571,0.35715 161.78571,0.35715 l 13.21429,143.57142 -207.5,14.28572 z"
         id="path4240"
         inkscape:connector-curvature="0"
         sodipodi:nodetypes="cscccc" />
      <path
         style="fill:#333333;fill-opacity:1;fill-rule:evenodd;stroke:#000000;stroke-width:5;stroke-linecap:butt;stroke-linejoin:round;stroke-miterlimit:4;stroke-dasharray:none;stroke-opacity:1"
         d="m -81.439983,715.40704 c 0,0 139.011166,-6.68757 201.697083,13.83098 62.40877,20.42783 95.06279,82.94137 157.41574,103.48421 56.9059,18.74826 183.19296,13.24251 183.19296,13.24251 0,0 56.0758,-41.56384 80.02267,-95.39331 24.57841,-55.24909 114.7352,-54.83699 145.51693,-106.64942 38.57958,-64.93795 148.5127,-143.00338 148.5127,-143.00338 0,0 -281.41792,-152.90256 -353.0607,-127.61693 -57.24243,20.20316 -87.57403,126.9458 -87.57403,126.9458 0,0 -95.90208,-77.98759 -133.73923,-75.06172 -61.57163,4.7612 -83.48904,57.14594 -123.47479,138.12164 -35.90924,72.72032 -218.509333,152.09962 -218.509333,152.09962 z"
         id="path4242"
         inkscape:connector-curvature="0"
         sodipodi:nodetypes="csscsscscssc" />
    </g>
    <path
       style="fill:#efefff;fill-opacity:1;fill-rule:evenodd;stroke:#000000;stroke-width:5;stroke-linecap:butt;stroke-linejoin:round;stroke-miterlimit:4;stroke-dasharray:none;stroke-opacity:1"
       d="m -85.480593,703.28521 c 0,0 139.011166,-6.68757 201.697083,13.83098 62.40877,20.42783 95.06279,82.94137 157.41574,103.48421 56.9059,18.74826 183.19296,13.24251 183.19296,13.24251 0,0 56.0758,-41.56384 80.02267,-95.39331 24.57841,-55.24909 114.7352,-54.83699 145.51693,-106.64942 38.57958,-64.93795 148.5127,-143.00338 148.5127,-143.00338 0,0 -281.41792,-152.90256 -353.0607,-127.61693 -57.24243,20.20316 -87.57403,126.9458 -87.57403,126.9458 0,0 -95.90208,-77.98759 -133.73923,-75.06172 -61.57163,4.7612 -83.48904,57.14594 -123.47479,138.12164 C 97.1195,623.90591 -85.480593,703.28521 -85.480593,703.28521 Z"
       id="path4136"
       inkscape:connector-curvature="0"
       sodipodi:nodetypes="csscsscscssc" />
    <g
       id="g4179"
       transform="matrix(0.66372961,0,0,0.66372961,1039.9635,417.57558)"
       style="fill:#9195f2;fill-opacity:1;stroke-width:4.51991272;stroke-miterlimit:4;stroke-dasharray:none">
      <path
         id="path4177"
         d="m -948.41433,496.1293 a 67.680222,29.7995 0 0 0 -56.92387,13.73633 l -10.7519,0 0,16.01172 a 67.680222,29.7995 0 0 0 -0.01,0.0508 67.680222,29.7995 0 0 0 0.01,0.0723 l 0,0.26953 0.022,0 a 67.680222,29.7995 0 0 0 67.65427,29.45898 67.680222,29.7995 0 0 0 67.64062,-29.45898 l 0.0332,0 0,-0.29102 a 67.680222,29.7995 0 0 0 0.006,-0.0508 67.680222,29.7995 0 0 0 -0.006,-0.0723 l 0,-15.99023 -10.67579,0 a 67.680222,29.7995 0 0 0 -56.99804,-13.73633 z"
         style="fill:#9195f2;fill-opacity:1;stroke:#000000;stroke-width:4.51991272;stroke-miterlimit:4;stroke-dasharray:none;stroke-opacity:1"
         inkscape:connector-curvature="0" />
      <path
         inkscape:connector-curvature="0"
         style="fill:#9195f2;fill-opacity:1;stroke:#000000;stroke-width:4.51991272;stroke-miterlimit:4;stroke-dasharray:none;stroke-opacity:1"
         d="m -948.41433,482.1293 a 67.680222,29.7995 0 0 0 -56.92387,13.73633 l -10.7519,0 0,16.01172 a 67.680222,29.7995 0 0 0 -0.01,0.0508 67.680222,29.7995 0 0 0 0.01,0.0723 l 0,0.26953 0.022,0 a 67.680222,29.7995 0 0 0 67.65427,29.45898 67.680222,29.7995 0 0 0 67.64062,-29.45898 l 0.0332,0 0,-0.29102 a 67.680222,29.7995 0 0 0 0.006,-0.0508 67.680222,29.7995 0 0 0 -0.006,-0.0723 l 0,-15.99023 -10.67579,0 a 67.680222,29.7995 0 0 0 -56.99804,-13.73633 z"
         id="path4175" />
      <path
         id="path4167"
         transform="translate(-247.36941,164.61563)"
         d="M -701.04492,301.51367 A 67.680222,29.7995 0 0 0 -757.96875,315.25 l -10.75195,0 0,16.01172 a 67.680222,29.7995 0 0 0 -0.006,0.0508 67.680222,29.7995 0 0 0 0.006,0.0723 l 0,0.26953 0.0215,0 a 67.680222,29.7995 0 0 0 67.6543,29.45898 67.680222,29.7995 0 0 0 67.64062,-29.45898 l 0.0332,0 0,-0.29102 a 67.680222,29.7995 0 0 0 0.006,-0.0508 67.680222,29.7995 0 0 0 -0.006,-0.0723 l 0,-15.99023 -10.67579,0 a 67.680222,29.7995 0 0 0 -56.99804,-13.73633 z"
         style="fill:#9195f2;fill-opacity:1;stroke:#000000;stroke-width:4.51991272;stroke-miterlimit:4;stroke-dasharray:none;stroke-opacity:1"
         inkscape:connector-curvature="0" />
      <ellipse
         style="fill:#9195f2;fill-opacity:1;stroke:#000000;stroke-width:4.51991272;stroke-miterlimit:4;stroke-dasharray:none;stroke-opacity:1"
         id="ellipse4169"
         cx="-948.41522"
         cy="480.32141"
         rx="67.680222"
         ry="29.7995" />
    </g>
    <path
       style="fill:#808080;fill-opacity:1;fill-rule:evenodd;stroke:none;stroke-width:5;stroke-linecap:butt;stroke-linejoin:round;stroke-miterlimit:4;stroke-dasharray:none;stroke-opacity:1;filter:url(#filter4196)"
       d="m 388.7912,365.25546 c -22.31335,0.0523 -43.25477,0.8926 -56.9668,3.22461 -51.33305,8.73026 -103.00759,46.21321 -127.61328,66.20703 11.46508,-7.03731 24.53708,-11.32239 40.16992,-12.53125 37.83715,-2.92587 133.74024,75.06057 133.74024,75.06057 0,0 30.33178,-106.74217 87.57421,-126.94533 3.32305,-1.17284 7.09874,-1.96124 11.2754,-2.40039 -20.11795,-1.08664 -55.36227,-2.69208 -88.17969,-2.61524 z"
       id="path4150"
       inkscape:connector-curvature="0" />
    <path
       style="fill:#d3d3f7;fill-opacity:1;fill-rule:evenodd;stroke:#000000;stroke-width:5;stroke-linecap:butt;stroke-linejoin:round;stroke-miterlimit:4;stroke-dasharray:none;stroke-opacity:1"
       d="m 401.50656,355.44931 c -22.31334,0.0523 -43.25477,0.8926 -56.9668,3.22461 -51.33305,8.73027 -103.00955,46.21322 -127.61523,66.20703 11.46508,-7.03731 24.53708,-11.32239 40.16992,-12.53125 37.83715,-2.92587 133.74024,75.0625 133.74024,75.0625 0,0 30.33178,-106.7441 87.57421,-126.94726 3.32622,-1.17396 7.1057,-1.96148 11.28711,-2.40039 -20.11538,-1.08664 -55.36456,-2.6921 -88.18945,-2.61524 z"
       id="path4155"
       inkscape:connector-curvature="0" />
  </g>
</svg>
